<svg xmlns="http://www.w3.org/2000/svg" width="268" height="97" fill="none" viewBox="0 0 268 97">
  <path fill="#fff" stroke="#000" stroke-width="10" d="M44 80c21.324 0 39-16.58 39-37.5S65.324 5 44 5 5 21.58 5 42.5 22.676 80 44 80Z"/>
  <path fill="#CE0043" d="M63.555 27.234v16.22c0 7.077-1.813 12.202-5.438 15.374-3.61 3.172-7.734 4.758-12.375 4.758-3.36 0-6.554-.875-9.586-2.625-3.015-1.75-5.133-4.055-6.351-6.914-1.22-2.875-1.828-6.64-1.828-11.297V27.234H43.82v16.57c0 1.782.157 2.907.47 3.376.312.468.78.703 1.405.703.875 0 1.43-.422 1.664-1.266.235-.86.352-2.297.352-4.312v-15.07h15.844Zm33.21-.35h22.383c4.578 0 8.031.899 10.36 2.696 2.343 1.78 3.515 4.21 3.515 7.289 0 3.36-1.555 5.922-4.664 7.687 1.844.969 3.242 2.102 4.195 3.399.954 1.28 1.43 2.883 1.43 4.804 0 3-1.078 5.399-3.234 7.196-2.141 1.797-5.149 2.695-9.024 2.695h-24.96V26.884Zm15.844 7.196v6.96h.399c1.718 0 2.937-.257 3.656-.773.719-.531 1.078-1.437 1.078-2.719 0-2.312-1.391-3.468-4.172-3.468h-.961Zm0 12.96v7.735h.492c1.813 0 3.102-.273 3.867-.82.782-.563 1.172-1.524 1.172-2.883 0-2.688-1.476-4.031-4.429-4.031h-1.102Zm35.813-12.515c-1.125 0-2.094-.406-2.907-1.219-.812-.812-1.218-1.781-1.218-2.906 0-1.125.406-2.086 1.218-2.883.813-.797 1.782-1.195 2.907-1.195s2.086.398 2.882 1.195c.797.797 1.196 1.758 1.196 2.883s-.399 2.094-1.196 2.906c-.796.813-1.757 1.219-2.882 1.219Zm4.171-.094V62.65h-14.484V34.431c1.906 1.078 4.383 1.617 7.43 1.617 2.828 0 5.179-.539 7.054-1.617Zm19.875 0v3.54c2.438-2.516 5.352-3.774 8.743-3.774 3.297 0 5.82.922 7.57 2.765 1.766 1.829 2.648 4.547 2.648 8.157V62.65h-13.687V46.197c0-2.344-.891-3.516-2.672-3.516-.859 0-1.727.305-2.602.914V62.65h-14.484V34.431h14.484Zm51.985 18.774v9.445h-30.211l10.195-19.195h-8.883V34.43h29.039l-9.984 18.774h9.844Zm21.351 10.03c-5.109 0-9.445-1.788-13.007-5.366-3.547-3.594-5.321-7.969-5.321-13.125 0-5.14 1.774-9.492 5.321-13.055 3.562-3.578 7.898-5.367 13.007-5.367 5.125 0 9.461 1.789 13.008 5.367 3.563 3.563 5.344 7.914 5.344 13.055 0 5.156-1.781 9.531-5.344 13.125-3.547 3.578-7.883 5.367-13.008 5.367Zm0-23.202c-1.015 0-1.859.36-2.531 1.078-.672.703-1.008 1.594-1.008 2.672s.336 1.976 1.008 2.695c.672.703 1.516 1.055 2.531 1.055 1.032 0 1.883-.352 2.555-1.055.672-.719 1.008-1.617 1.008-2.695 0-1.078-.336-1.969-1.008-2.672-.672-.719-1.523-1.078-2.555-1.078Z"/>
</svg>
